<svg xmlns="http://www.w3.org/2000/svg" width="36" height="36" viewBox="0 0 36 36"><g fill="none" fill-rule="evenodd"><rect width="36" height="36" fill="#1FBB7D" rx="6"/><path fill="#FFF" d="M21.7698371,24.1138928 L21.7698371,26.5 L10.0933255,26.5 C9.43442021,26.5 8.90027193,25.9658517 8.90027193,25.3069464 C8.90027193,24.6480411 9.43442021,24.1138928 10.0933255,24.1138928 L21.7698371,24.1138928 Z M25.4047725,9 C26.0636778,9 26.5978261,9.53414828 26.5978261,10.1930536 C26.5978261,10.8519589 26.0636778,11.3861072 25.4047725,11.3861072 L13.326087,11.3861072 L13.3262867,11.3986482 C11.9714897,11.5272995 10.9130435,12.6299016 10.9130435,13.9710566 C10.9130435,15.3122117 11.9714897,16.4148137 13.3262867,16.543465 L13.326087,16.556006 L21.7717391,16.556006 L21.771,16.56 L21.9728261,16.556006 C24.6761936,16.556006 26.8811758,18.6660274 26.9953554,21.3114285 L27,21.5270626 C27,24.2725014 24.7492576,26.4981192 21.9728261,26.4981192 C21.9054598,26.4981192 21.8384029,26.496809 21.7716802,26.4942128 L21.7713493,24.1044487 C21.8378436,24.1094603 21.9050335,24.1120121 21.9728261,24.1120121 C23.4165705,24.1120121 24.5869565,22.9546908 24.5869565,21.5270626 C24.5869565,20.0994345 23.4165705,18.9421132 21.9728261,18.9421132 C21.9050335,18.9421132 21.8378436,18.944665 21.7713493,18.9496766 L21.7717391,18.9421132 L13.326087,18.9421132 L13.326,18.937 L13.3091055,18.9375204 C10.633841,18.8246154 8.5,16.644247 8.5,13.9710566 C8.5,11.2922322 10.6428451,9.10830922 13.326028,9.00390646 L13.326087,9 L25.4047725,9 Z"/></g></svg>